# Blender v2.82 (sub 7) OBJ File: '3.blend'
# www.blender.org
mtllib 3.mtl
o Plane_Plane.002
v -2.981481 -0.017916 0.238293
v -2.928064 0.000000 0.238293
v -2.928064 -0.017916 0.242640
v 2.928064 -0.017916 0.242640
v 2.928064 0.000000 0.238293
v 2.981481 -0.017916 0.238293
v -2.981481 -0.017916 -0.238293
v -2.928064 -0.017916 -0.242640
v -2.928064 0.000000 -0.238293
v 2.981481 -0.017916 -0.238293
v 2.928064 0.000000 -0.238293
v 2.928064 -0.017916 -0.242640
v 0.236138 -0.099101 2.928238
v 0.240485 -0.081185 2.928242
v 0.236099 -0.081185 2.981656
v 0.244795 -0.081185 -2.927884
v 0.240448 -0.099101 -2.927888
v 0.240487 -0.081185 -2.981305
v -0.240448 -0.099101 2.927888
v -0.240487 -0.081185 2.981305
v -0.244795 -0.081185 2.927884
v -0.236138 -0.099101 -2.928238
v -0.240485 -0.081185 -2.928242
v -0.236099 -0.081185 -2.981656
v -2.981481 -0.081185 0.238293
v -2.928064 -0.081185 0.242640
v -2.928064 -0.099101 0.238293
v 2.928064 -0.081185 0.242640
v 2.981481 -0.081185 0.238293
v 2.928064 -0.099101 0.238293
v -2.981481 -0.081185 -0.238293
v -2.928064 -0.099101 -0.238293
v -2.928064 -0.081185 -0.242640
v 2.981481 -0.081185 -0.238293
v 2.928064 -0.081185 -0.242640
v 2.928064 -0.099101 -0.238293
v 0.240485 -0.017916 2.928242
v 0.236138 0.000000 2.928238
v 0.236099 -0.017916 2.981656
v 0.240448 0.000000 -2.927888
v 0.244795 -0.017916 -2.927884
v 0.240487 -0.017916 -2.981305
v -0.240487 -0.017916 2.981305
v -0.240448 0.000000 2.927888
v -0.244795 -0.017916 2.927884
v -0.240485 -0.017916 -2.928242
v -0.236138 0.000000 -2.928238
v -0.236099 -0.017916 -2.981656
vt 0.008958 0.000000
vt 0.008958 0.000000
vt 0.991042 0.000000
vt 0.991042 0.000000
vt 0.000000 0.991042
vt 0.000000 0.991042
vt 0.000000 0.008958
vt 0.000000 0.008958
vt 0.008958 1.000000
vt 0.008958 1.000000
vt 0.008958 0.000000
vt 0.008958 0.000000
vt 0.991042 1.000000
vt 0.991042 1.000000
vt 0.008958 1.000000
vt 0.008958 1.000000
vt 0.008958 0.008958
vt 0.991042 0.008958
vt 0.991042 0.991042
vt 0.008958 0.991042
vt 0.008958 0.008958
vt 0.008958 0.991042
vt 0.991042 0.991042
vt 0.991042 0.008958
vt 0.991042 0.000000
vt 1.000000 0.008958
vt 1.000000 0.008958
vt 0.991042 0.000000
vt 0.991042 1.000000
vt 1.000000 0.991042
vt 1.000000 0.991042
vt 0.991042 1.000000
vt 1.000000 0.008958
vt 1.000000 0.008958
vt 1.000000 0.991042
vt 1.000000 0.991042
vt 0.991042 0.991042
vt 0.008958 0.991042
vt 0.000000 0.008958
vt 0.000000 0.991042
vt 0.991042 0.008958
vt 0.008958 0.008958
vt 0.991042 0.991042
vt 0.008958 0.991042
vt 0.000000 0.008958
vt 0.000000 0.991042
vt 0.991042 0.008958
vt 0.008958 0.008958
vn 0.0000 0.0000 1.0000
vn 0.0007 0.0000 -1.0000
vn 0.9968 0.0000 -0.0804
vn -0.9966 0.0000 -0.0818
vn 0.0000 0.0000 -1.0000
vn 0.0000 1.0000 0.0000
vn 0.0000 -1.0000 0.0000
vn -0.9968 0.0000 0.0804
vn 0.9966 0.0000 0.0818
vn 1.0000 0.0000 0.0000
vn 0.9718 -0.2358 0.0007
vn -0.0788 0.2351 0.9688
vn 0.0788 0.2351 0.9688
vn -0.0788 0.2351 -0.9688
vn 0.0788 0.2351 -0.9688
vn -0.0002 -0.9481 0.3180
vn -0.9718 -0.2358 -0.0007
vn 0.0002 -0.9481 -0.3180
vn 0.9718 0.2358 0.0007
vn -0.0788 -0.2351 0.9688
vn 0.0788 -0.2351 0.9688
vn -0.0788 -0.2351 -0.9688
vn 0.0788 -0.2351 -0.9688
vn -0.0002 0.9481 0.3180
vn -0.9718 0.2358 -0.0007
vn 0.0002 0.9481 -0.3180
vn 0.9687 -0.2351 0.0796
vn -0.3180 0.9481 0.0000
vn 0.0000 0.2358 0.9718
vn 0.3180 0.9481 0.0000
vn 0.0000 0.2358 -0.9718
vn 0.9688 -0.2351 -0.0781
vn -0.9688 -0.2351 0.0781
vn -0.9687 -0.2351 -0.0796
vn 0.9687 0.2351 0.0796
vn -0.3180 -0.9481 0.0000
vn 0.0000 -0.2358 0.9718
vn 0.3180 -0.9481 0.0000
vn 0.0000 -0.2358 -0.9718
vn 0.9688 0.2351 -0.0781
vn -0.9688 0.2351 0.0781
vn -0.9687 0.2351 -0.0796
vn -0.0007 0.0000 1.0000
vn 0.0811 0.0000 -0.9967
vn 0.0811 0.0000 0.9967
vn -0.0811 0.0000 0.9967
vn -0.0811 0.0000 -0.9967
vn 1.0000 0.0000 0.0007
vn -1.0000 0.0000 -0.0007
vn -1.0000 0.0000 0.0000
usemtl None
s off
f 3/1/1 26/2/1 28/3/1 4/4/1
f 42/5/2 18/6/2 24/7/2 48/8/2
f 16/9/3 18/6/3 42/5/3 41/10/3
f 46/11/4 48/8/4 24/7/4 23/12/4
f 12/13/5 35/14/5 33/15/5 8/16/5
f 2/17/6 5/18/6 11/19/6 9/20/6
f 27/21/7 32/22/7 36/23/7 30/24/7
f 21/25/8 20/26/8 43/27/8 45/28/8
f 37/29/9 39/30/9 15/31/9 14/32/9
f 6/33/10 29/34/10 34/35/10 10/36/10
f 14/32/11 13/37/11 17/38/11 16/9/11
f 1/39/12 3/1/12 2/17/12
f 4/4/13 6/33/13 5/18/13
f 7/40/14 9/20/14 8/16/14
f 10/36/15 12/13/15 11/19/15
f 20/26/16 19/41/16 13/37/16 15/31/16
f 23/12/17 22/42/17 19/41/17 21/25/17
f 18/6/18 17/38/18 22/42/18 24/7/18
f 38/43/19 37/29/19 41/10/19 40/44/19
f 25/45/20 27/21/20 26/2/20
f 28/3/21 30/24/21 29/34/21
f 31/46/22 33/15/22 32/22/22
f 34/35/23 36/23/23 35/14/23
f 44/47/24 43/27/24 39/30/24 38/43/24
f 47/48/25 46/11/25 45/28/25 44/47/25
f 40/44/26 42/5/26 48/8/26 47/48/26
f 15/31/27 13/37/27 14/32/27
f 9/20/28 7/40/28 1/39/28 2/17/28
f 2/17/29 3/1/29 4/4/29 5/18/29
f 5/18/30 6/33/30 10/36/30 11/19/30
f 11/19/31 12/13/31 8/16/31 9/20/31
f 18/6/32 16/9/32 17/38/32
f 21/25/33 19/41/33 20/26/33
f 24/7/34 22/42/34 23/12/34
f 39/30/35 37/29/35 38/43/35
f 31/46/36 32/22/36 27/21/36 25/45/36
f 26/2/37 27/21/37 30/24/37 28/3/37
f 29/34/38 30/24/38 36/23/38 34/35/38
f 35/14/39 36/23/39 32/22/39 33/15/39
f 42/5/40 40/44/40 41/10/40
f 45/28/41 43/27/41 44/47/41
f 48/8/42 46/11/42 47/48/42
f 43/27/43 20/26/43 15/31/43 39/30/43
f 22/42/7 17/38/7 13/37/7 19/41/7
f 47/48/6 44/47/6 38/43/6 40/44/6
f 12/13/44 10/36/44 34/35/44 35/14/44
f 28/3/45 29/34/45 6/33/45 4/4/45
f 3/1/46 1/39/46 25/45/46 26/2/46
f 33/15/47 31/46/47 7/40/47 8/16/47
f 37/29/48 14/32/48 16/9/48 41/10/48
f 46/11/49 23/12/49 21/25/49 45/28/49
f 7/40/50 31/46/50 25/45/50 1/39/50
