# Blender v2.82 (sub 7) OBJ File: '4.blend'
# www.blender.org
mtllib 4.mtl
o Plane.001_Plane.005
v 0.998619 -0.009738 1.004980
v 0.998617 0.000000 0.995242
v 0.999422 -0.009738 0.995242
v 0.999088 -0.009738 -0.985283
v 0.998284 0.000000 -0.985282
v 0.998282 -0.009738 -0.995020
v 0.835038 -0.009738 1.005007
v 0.834232 -0.009738 0.995270
v 0.835036 0.000000 0.995270
v 0.834701 -0.009738 -0.994993
v 0.834703 0.000000 -0.985255
v 0.833899 -0.009738 -0.985255
v -1.000148 -0.009738 -0.839930
v -0.999344 0.000000 -0.839930
v -0.999342 -0.009738 -0.830192
v 0.999049 -0.009738 -0.830529
v 0.999047 0.000000 -0.840266
v 0.999852 -0.009738 -0.840267
v -1.000173 -0.009738 -0.985644
v -0.999370 -0.009738 -0.995382
v -0.999369 0.000000 -0.985644
v 0.999827 -0.009738 -0.985981
v 0.999023 0.000000 -0.985981
v 0.999021 -0.009738 -0.995718
v -0.835276 -0.009738 1.003998
v -0.835277 0.000000 0.994261
v -0.834473 -0.009738 0.994261
v -0.834806 -0.009738 -0.986264
v -0.835611 0.000000 -0.986264
v -0.835612 -0.009738 -0.996001
v -0.998856 -0.009738 1.004026
v -0.999662 -0.009738 0.994288
v -0.998858 0.000000 0.994288
v -0.999193 -0.009738 -0.995974
v -0.999191 0.000000 -0.986236
v -0.999996 -0.009738 -0.986236
v 0.998619 -0.018817 1.004980
v 0.999422 -0.018817 0.995242
v 0.998617 -0.028554 0.995242
v 0.999088 -0.018817 -0.985283
v 0.998282 -0.018817 -0.995020
v 0.998284 -0.028554 -0.985282
v 0.835038 -0.018817 1.005007
v 0.835036 -0.028554 0.995270
v 0.834232 -0.018817 0.995270
v 0.834701 -0.018817 -0.994993
v 0.833899 -0.018817 -0.985255
v 0.834703 -0.028554 -0.985255
v -1.000148 -0.018817 -0.839930
v -0.999342 -0.018817 -0.830192
v -0.999344 -0.028554 -0.839930
v 0.999049 -0.018817 -0.830529
v 0.999852 -0.018817 -0.840267
v 0.999047 -0.028554 -0.840266
v -1.000173 -0.018817 -0.985644
v -0.999369 -0.028554 -0.985644
v -0.999370 -0.018817 -0.995382
v 0.999827 -0.018817 -0.985981
v 0.999021 -0.018817 -0.995718
v 0.999023 -0.028554 -0.985981
v -0.835276 -0.018817 1.003998
v -0.834473 -0.018817 0.994261
v -0.835277 -0.028554 0.994261
v -0.834806 -0.018817 -0.986264
v -0.835612 -0.018817 -0.996001
v -0.835611 -0.028554 -0.986264
v -0.998856 -0.018817 1.004026
v -0.998858 -0.028554 0.994288
v -0.999662 -0.018817 0.994288
v -0.999193 -0.018817 -0.995974
v -0.999996 -0.018817 -0.986236
v -0.999191 -0.028554 -0.986236
vt 0.004869 0.000000
vt 0.004869 0.000000
vt 0.995131 0.000000
vt 0.995131 0.000000
vt 0.000402 0.000000
vt 0.000402 0.000000
vt 0.999598 0.000000
vt 0.999598 0.000000
vt 0.004869 0.000000
vt 0.004869 0.000000
vt 0.995131 0.000000
vt 0.995131 0.000000
vt 0.000402 0.058949
vt 0.000402 0.941051
vt 0.999598 0.941051
vt 0.999598 0.058949
vt 0.004869 0.004869
vt 0.004869 0.995131
vt 0.995131 0.995131
vt 0.995131 0.004869
vt 1.000000 0.004869
vt 1.000000 0.004869
vt 1.000000 0.995131
vt 1.000000 0.995131
vt 0.004869 0.004869
vt 0.995131 0.004869
vt 0.995131 0.995131
vt 0.004869 0.995131
vt 1.000000 0.058949
vt 1.000000 0.058949
vt 1.000000 0.941051
vt 1.000000 0.941051
vt 0.995131 1.000000
vt 0.995131 1.000000
vt 0.004869 1.000000
vt 0.004869 1.000000
vt 1.000000 0.004869
vt 1.000000 0.004869
vt 1.000000 0.995131
vt 1.000000 0.995131
vt 0.999598 1.000000
vt 0.999598 1.000000
vt 0.000402 1.000000
vt 0.000402 1.000000
vt 0.000000 0.941051
vt 0.000000 0.941051
vt 0.000000 0.058949
vt 0.000000 0.058949
vt 0.995131 1.000000
vt 0.995131 1.000000
vt 0.004869 1.000000
vt 0.004869 1.000000
vt 0.004869 0.004869
vt 0.995131 0.004869
vt 0.995131 0.995131
vt 0.004869 0.995131
vt 0.000000 0.995131
vt 0.000000 0.995131
vt 0.000000 0.004869
vt 0.000000 0.004869
vt 0.000402 0.058949
vt 0.999598 0.058949
vt 0.999598 0.941051
vt 0.000402 0.941051
vt 0.004869 0.004869
vt 0.004869 0.995131
vt 0.995131 0.995131
vt 0.995131 0.004869
vt 0.000000 0.004869
vt 0.000000 0.995131
vt 0.000000 0.004869
vt 0.000000 0.995131
vn 1.0000 0.0000 -0.0002
vn 0.0002 0.0000 1.0000
vn 0.0000 -1.0000 0.0000
vn -0.0002 0.0000 -1.0000
vn 0.0000 1.0000 0.0000
vn -1.0000 0.0000 0.0002
vn 0.9933 0.0820 0.0819
vn 0.9932 0.0821 -0.0822
vn -0.9932 0.0820 0.0822
vn -0.9933 0.0820 -0.0819
vn 0.9933 0.0821 0.0819
vn -0.9933 0.0821 -0.0819
vn 0.9932 0.0820 -0.0822
vn 0.9933 -0.0820 0.0819
vn 0.9932 -0.0821 -0.0822
vn -0.9932 -0.0820 0.0822
vn -0.9933 -0.0820 -0.0819
vn 0.9933 -0.0821 0.0819
vn -0.9933 -0.0821 -0.0819
vn 0.9932 -0.0820 -0.0822
vn 0.0001 0.7071 0.7071
vn 0.9966 0.0823 -0.0002
vn -0.0001 0.7071 -0.7071
vn -0.9966 0.0823 0.0002
vn 0.0001 -0.7071 0.7071
vn 0.9966 -0.0823 -0.0002
vn -0.0001 -0.7071 -0.7071
vn -0.9966 -0.0823 0.0002
vn 0.9966 0.0000 -0.0825
vn 0.9966 0.0000 0.0822
vn 0.9966 0.0000 0.0821
vn -0.9966 0.0000 0.0825
vn -0.9966 0.0000 -0.0822
vn -0.9966 0.0000 -0.0821
usemtl None
s off
f 3/1/1 38/2/1 40/3/1 4/4/1
f 15/5/2 50/6/2 52/7/2 16/8/2
f 27/9/1 62/10/1 64/11/1 28/12/1
f 51/13/3 56/14/3 60/15/3 54/16/3
f 63/17/3 68/18/3 72/19/3 66/20/3
f 6/21/4 41/22/4 46/23/4 10/24/4
f 26/25/5 29/26/5 35/27/5 33/28/5
f 18/29/1 53/30/1 58/31/1 22/32/1
f 12/33/6 47/34/6 45/35/6 8/36/6
f 30/37/4 65/38/4 70/39/4 34/40/4
f 24/41/4 59/42/4 57/43/4 20/44/4
f 19/45/6 55/46/6 49/47/6 13/48/6
f 36/49/6 71/50/6 69/51/6 32/52/6
f 2/53/5 5/54/5 11/55/5 9/56/5
f 31/57/2 67/58/2 61/59/2 25/60/2
f 14/61/5 17/62/5 23/63/5 21/64/5
f 39/65/3 44/66/3 48/67/3 42/68/3
f 1/69/7 3/1/7 2/53/7
f 4/4/8 6/21/8 5/54/8
f 7/70/9 9/56/9 8/36/9
f 10/24/10 12/33/10 11/55/10
f 13/48/9 15/5/9 14/61/9
f 16/8/11 18/29/11 17/62/11
f 19/45/12 21/64/12 20/44/12
f 22/32/13 24/41/13 23/63/13
f 25/60/7 27/9/7 26/25/7
f 28/12/13 30/37/13 29/26/13
f 31/57/9 33/28/9 32/52/9
f 34/40/10 36/49/10 35/27/10
f 37/71/14 39/65/14 38/2/14
f 40/3/15 42/68/15 41/22/15
f 43/72/16 45/35/16 44/66/16
f 46/23/17 48/67/17 47/34/17
f 49/47/16 51/13/16 50/6/16
f 52/7/18 54/16/18 53/30/18
f 55/46/19 57/43/19 56/14/19
f 58/31/20 60/15/20 59/42/20
f 61/59/14 63/17/14 62/10/14
f 64/11/20 66/20/20 65/38/20
f 67/58/16 69/51/16 68/18/16
f 70/39/17 72/19/17 71/50/17
f 9/56/21 7/70/21 1/69/21 2/53/21
f 2/53/22 3/1/22 4/4/22 5/54/22
f 5/54/23 6/21/23 10/24/23 11/55/23
f 11/55/24 12/33/24 8/36/24 9/56/24
f 21/64/24 19/45/24 13/48/24 14/61/24
f 14/61/21 15/5/21 16/8/21 17/62/21
f 17/62/22 18/29/22 22/32/22 23/63/22
f 23/63/23 24/41/23 20/44/23 21/64/23
f 33/28/21 31/57/21 25/60/21 26/25/21
f 26/25/22 27/9/22 28/12/22 29/26/22
f 29/26/23 30/37/23 34/40/23 35/27/23
f 35/27/24 36/49/24 32/52/24 33/28/24
f 43/72/25 44/66/25 39/65/25 37/71/25
f 38/2/26 39/65/26 42/68/26 40/3/26
f 41/22/27 42/68/27 48/67/27 46/23/27
f 47/34/28 48/67/28 44/66/28 45/35/28
f 55/46/28 56/14/28 51/13/28 49/47/28
f 50/6/25 51/13/25 54/16/25 52/7/25
f 53/30/26 54/16/26 60/15/26 58/31/26
f 59/42/27 60/15/27 56/14/27 57/43/27
f 67/58/25 68/18/25 63/17/25 61/59/25
f 62/10/26 63/17/26 66/20/26 64/11/26
f 65/38/27 66/20/27 72/19/27 70/39/27
f 71/50/28 72/19/28 68/18/28 69/51/28
f 6/21/29 4/4/29 40/3/29 41/22/29
f 37/71/30 38/2/30 3/1/30 1/69/30
f 27/9/31 25/60/31 61/59/31 62/10/31
f 69/51/32 67/58/32 31/57/32 32/52/32
f 18/29/30 16/8/30 52/7/30 53/30/30
f 49/47/32 50/6/32 15/5/32 13/48/32
f 12/33/33 10/24/33 46/23/33 47/34/33
f 30/37/29 28/12/29 64/11/29 65/38/29
f 24/41/29 22/32/29 58/31/29 59/42/29
f 7/70/32 8/36/32 45/35/32 43/72/32
f 36/49/34 34/40/34 70/39/34 71/50/34
f 19/45/33 20/44/33 57/43/33 55/46/33
f 7/70/2 43/72/2 37/71/2 1/69/2
