# Blender v2.82 (sub 7) OBJ File: '7.blend'
# www.blender.org
mtllib 7.mtl
o Plane_Plane.006
v -0.515146 0.000000 0.056372
v 0.583502 0.000000 0.056372
v -0.515146 0.000000 -0.056372
v 0.583502 0.000000 -0.056372
v -0.515146 -0.009152 0.056372
v 0.583502 -0.009152 0.056372
v -0.515146 -0.009152 -0.056372
v 0.583502 -0.009152 -0.056372
vt 0.000000 0.000000
vt 1.000000 0.000000
vt 1.000000 1.000000
vt 0.000000 1.000000
vt 0.000000 0.000000
vt 0.000000 1.000000
vt 1.000000 1.000000
vt 1.000000 0.000000
vn 0.0000 1.0000 0.0000
vn 0.0000 -1.0000 0.0000
vn 1.0000 0.0000 0.0000
vn -1.0000 0.0000 0.0000
vn 0.0000 0.0000 -1.0000
vn 0.0000 0.0000 1.0000
usemtl None
s off
f 1/1/1 2/2/1 4/3/1 3/4/1
f 5/5/2 7/6/2 8/7/2 6/8/2
f 2/2/3 6/8/3 8/7/3 4/3/3
f 3/4/4 7/6/4 5/5/4 1/1/4
f 4/3/5 8/7/5 7/6/5 3/4/5
f 1/1/6 5/5/6 6/8/6 2/2/6
